<svg width="227" height="70" viewBox="0 0 227 70" fill="none" xmlns="http://www.w3.org/2000/svg">
<path d="M6.05113 29.844C5.34713 29.844 4.65046 29.9467 3.96113 30.152C3.2718 30.3427 2.59713 30.5773 1.93713 30.856L0.88113 28.172C1.65846 27.8347 2.4798 27.5707 3.34513 27.38C4.21046 27.1747 5.13446 27.072 6.11713 27.072C7.2758 27.072 8.30246 27.2553 9.19713 27.622C10.1065 27.974 10.8691 28.502 11.4851 29.206C12.1158 29.8953 12.5925 30.746 12.9151 31.758C13.2525 32.7553 13.4211 33.892 13.4211 35.168C13.4211 36.7813 13.1498 38.1967 12.6071 39.414C12.0645 40.6167 11.2285 41.5553 10.0991 42.23C8.98446 42.89 7.55446 43.22 5.80913 43.22C4.91446 43.22 4.10046 43.154 3.36713 43.022C2.64846 42.89 1.91513 42.6847 1.16713 42.406V39.612C2.00313 39.876 2.77313 40.0813 3.47713 40.228C4.1958 40.3747 4.90713 40.448 5.61113 40.448C6.2858 40.448 6.8798 40.3673 7.39313 40.206C7.92113 40.03 8.36113 39.7807 8.71313 39.458C9.0798 39.1207 9.3658 38.7027 9.57113 38.204C9.77646 37.6907 9.8938 37.104 9.92313 36.444H3.10313V33.716H9.90113C9.88646 33.1 9.7838 32.5573 9.59313 32.088C9.40246 31.604 9.13846 31.2007 8.80113 30.878C8.4638 30.5407 8.06046 30.284 7.59113 30.108C7.13646 29.932 6.62313 29.844 6.05113 29.844ZM30.9893 43H27.6673V30.064H23.8173C23.7293 30.7387 23.634 31.472 23.5313 32.264C23.4433 33.056 23.3407 33.8627 23.2233 34.684C23.1207 35.4907 23.0107 36.2607 22.8933 36.994C22.776 37.7127 22.6587 38.3507 22.5413 38.908C22.3507 39.8173 22.094 40.5947 21.7713 41.24C21.4633 41.8853 21.0307 42.3767 20.4733 42.714C19.9307 43.0513 19.2193 43.22 18.3393 43.22C18.046 43.22 17.7673 43.198 17.5033 43.154C17.2393 43.11 16.99 43.0513 16.7553 42.978V40.25C16.946 40.3087 17.1293 40.36 17.3053 40.404C17.496 40.448 17.7013 40.47 17.9213 40.47C18.2147 40.47 18.4567 40.3747 18.6473 40.184C18.838 39.9933 19.0067 39.6707 19.1533 39.216C19.3 38.7467 19.4467 38.1013 19.5933 37.28C19.6667 36.928 19.7547 36.4293 19.8573 35.784C19.96 35.124 20.0773 34.354 20.2093 33.474C20.356 32.5793 20.5027 31.6113 20.6493 30.57C20.796 29.514 20.9353 28.4213 21.0673 27.292H30.9893V43ZM46.3039 43H37.2619V27.292H46.3039V30.02H40.5839V33.474H45.9079V36.202H40.5839V40.25H46.3039V43ZM64.6865 43H60.9025L55.2045 35.036V43H51.8825V27.292H55.2045V34.904L60.8365 27.292H64.3785L58.6585 34.838L64.6865 43ZM75.0237 43H71.7017V30.064H67.4337V27.292H79.2917V30.064H75.0237V43ZM89.0399 27.292C91.0639 27.292 92.5379 27.732 93.4619 28.612C94.4006 29.4773 94.8699 30.6727 94.8699 32.198C94.8699 32.8873 94.7673 33.5473 94.5619 34.178C94.3566 34.794 94.0119 35.3513 93.5279 35.85C93.0586 36.334 92.4353 36.7153 91.6579 36.994C90.8806 37.2727 89.9199 37.412 88.7759 37.412H87.3459V43H84.0239V27.292H89.0399ZM88.8639 30.02H87.3459V34.684H88.4459C89.0766 34.684 89.6193 34.6033 90.0739 34.442C90.5286 34.2807 90.8806 34.024 91.1299 33.672C91.3793 33.32 91.5039 32.8653 91.5039 32.308C91.5039 31.5307 91.2913 30.9587 90.8659 30.592C90.4406 30.2107 89.7733 30.02 88.8639 30.02ZM114.404 35.124C114.404 36.3413 114.25 37.4487 113.942 38.446C113.649 39.4287 113.194 40.2793 112.578 40.998C111.977 41.7167 111.2 42.2667 110.246 42.648C109.308 43.0293 108.2 43.22 106.924 43.22C105.648 43.22 104.534 43.0293 103.58 42.648C102.642 42.252 101.864 41.702 101.248 40.998C100.647 40.2793 100.192 39.4213 99.8844 38.424C99.5911 37.4267 99.4444 36.3193 99.4444 35.102C99.4444 33.474 99.7084 32.0587 100.236 30.856C100.779 29.6533 101.6 28.722 102.7 28.062C103.815 27.3873 105.23 27.05 106.946 27.05C108.648 27.05 110.048 27.3873 111.148 28.062C112.248 28.722 113.062 29.6607 113.59 30.878C114.133 32.0807 114.404 33.496 114.404 35.124ZM102.942 35.124C102.942 36.224 103.082 37.17 103.36 37.962C103.639 38.754 104.072 39.3627 104.658 39.788C105.245 40.2133 106 40.426 106.924 40.426C107.878 40.426 108.64 40.2133 109.212 39.788C109.799 39.3627 110.224 38.754 110.488 37.962C110.767 37.17 110.906 36.224 110.906 35.124C110.906 33.4667 110.598 32.1687 109.982 31.23C109.366 30.2913 108.354 29.822 106.946 29.822C106.008 29.822 105.245 30.0347 104.658 30.46C104.072 30.8853 103.639 31.494 103.36 32.286C103.082 33.078 102.942 34.024 102.942 35.124ZM126.634 29.844C126.003 29.844 125.439 29.9687 124.94 30.218C124.456 30.4673 124.045 30.8267 123.708 31.296C123.371 31.7507 123.114 32.308 122.938 32.968C122.777 33.628 122.696 34.3687 122.696 35.19C122.696 36.3047 122.828 37.258 123.092 38.05C123.371 38.8273 123.803 39.4213 124.39 39.832C124.977 40.2427 125.725 40.448 126.634 40.448C127.279 40.448 127.917 40.3747 128.548 40.228C129.193 40.0813 129.89 39.876 130.638 39.612V42.406C129.949 42.6847 129.267 42.89 128.592 43.022C127.917 43.154 127.162 43.22 126.326 43.22C124.713 43.22 123.378 42.89 122.322 42.23C121.281 41.5553 120.511 40.6167 120.012 39.414C119.513 38.1967 119.264 36.7813 119.264 35.168C119.264 33.98 119.425 32.8947 119.748 31.912C120.071 30.9147 120.54 30.0567 121.156 29.338C121.787 28.6193 122.557 28.062 123.466 27.666C124.39 27.27 125.446 27.072 126.634 27.072C127.411 27.072 128.189 27.1747 128.966 27.38C129.758 27.5707 130.513 27.8347 131.232 28.172L130.154 30.878C129.567 30.5993 128.973 30.3573 128.372 30.152C127.785 29.9467 127.206 29.844 126.634 29.844ZM136.286 27.292H139.278V34.882C139.278 35.2487 139.271 35.6593 139.256 36.114C139.241 36.5687 139.227 37.016 139.212 37.456C139.197 37.8813 139.183 38.2553 139.168 38.578C139.153 38.886 139.139 39.0987 139.124 39.216H139.19L146.45 27.292H150.432V43H147.462V35.454C147.462 35.058 147.469 34.6253 147.484 34.156C147.499 33.672 147.513 33.21 147.528 32.77C147.557 32.33 147.579 31.9487 147.594 31.626C147.623 31.2887 147.645 31.0687 147.66 30.966H147.572L140.29 43H136.286V27.292ZM162.757 43H159.435V30.064H155.167V27.292H167.025V30.064H162.757V43ZM171.758 27.292H174.75V34.882C174.75 35.2487 174.742 35.6593 174.728 36.114C174.713 36.5687 174.698 37.016 174.684 37.456C174.669 37.8813 174.654 38.2553 174.64 38.578C174.625 38.886 174.61 39.0987 174.596 39.216H174.662L181.922 27.292H185.904V43H182.934V35.454C182.934 35.058 182.941 34.6253 182.956 34.156C182.97 33.672 182.985 33.21 183 32.77C183.029 32.33 183.051 31.9487 183.066 31.626C183.095 31.2887 183.117 31.0687 183.132 30.966H183.044L175.762 43H171.758V27.292Z" fill="#E11C4B"/>
</svg>
