<svg width="1156" height="650" viewBox="0 0 1156 650" fill="none" xmlns="http://www.w3.org/2000/svg">
<rect x="3.16809" y="3.13867" width="1149.66" height="643.258" rx="33" fill="white" stroke="#E11C4B" stroke-width="6"/>
<path d="M425.787 232.948V239.833H404.576V232.948H425.787ZM432.057 232.948V275.604H423.268V232.948H432.057ZM403.463 232.948H412.223L411.139 254.364C410.982 257.567 410.68 260.351 410.23 262.714C409.801 265.077 409.215 267.089 408.473 268.749C407.73 270.39 406.812 271.718 405.719 272.733C404.645 273.729 403.375 274.462 401.91 274.931C400.445 275.38 398.775 275.604 396.9 275.604H394.732V268.749L395.846 268.661C396.803 268.563 397.643 268.31 398.365 267.899C399.088 267.489 399.703 266.874 400.211 266.054C400.738 265.233 401.168 264.188 401.5 262.919C401.852 261.63 402.125 260.058 402.32 258.202C402.535 256.347 402.682 254.179 402.76 251.698L403.463 232.948ZM447.584 263.827L458.219 243.905H466.656V275.604H458.219V255.653L447.584 275.604H439.146V243.905H447.584V263.827ZM482.154 243.905V275.604H473.717V243.905H482.154ZM502.75 243.905L489.098 263.739H480.66L479.635 255.946H485.23L492.057 243.905H502.75ZM492.437 275.604L484.645 262.216L491.998 258.144L503.746 275.604H492.437ZM522.701 262.362H512.77L512.711 256.825H520.914C522.008 256.825 522.896 256.718 523.58 256.503C524.264 256.269 524.762 255.927 525.074 255.478C525.406 255.009 525.572 254.442 525.572 253.778C525.572 253.192 525.465 252.694 525.25 252.284C525.055 251.854 524.752 251.503 524.342 251.229C523.932 250.956 523.414 250.761 522.789 250.644C522.184 250.507 521.471 250.438 520.65 250.438H515.904V275.604H507.467V243.905H520.65C522.721 243.905 524.576 244.091 526.217 244.462C527.857 244.813 529.254 245.351 530.406 246.073C531.578 246.796 532.467 247.714 533.072 248.827C533.697 249.921 534.01 251.22 534.01 252.724C534.01 253.7 533.785 254.618 533.336 255.478C532.906 256.337 532.262 257.099 531.402 257.763C530.543 258.427 529.479 258.974 528.209 259.403C526.959 259.813 525.514 260.067 523.873 260.165L522.701 262.362ZM522.701 275.604H510.689L513.59 269.071H522.701C523.736 269.071 524.586 268.944 525.25 268.69C525.914 268.437 526.402 268.065 526.715 267.577C527.047 267.069 527.213 266.464 527.213 265.761C527.213 265.077 527.066 264.481 526.773 263.974C526.48 263.466 526.002 263.075 525.338 262.802C524.693 262.509 523.814 262.362 522.701 262.362H514.82L514.879 256.825H523.844L525.895 259.052C528.121 259.188 529.957 259.608 531.402 260.312C532.848 261.015 533.912 261.913 534.596 263.007C535.299 264.081 535.65 265.263 535.65 266.552C535.65 268.056 535.367 269.374 534.801 270.507C534.234 271.64 533.395 272.587 532.281 273.349C531.187 274.091 529.84 274.657 528.238 275.048C526.637 275.419 524.791 275.604 522.701 275.604ZM549.244 263.827L559.879 243.905H568.316V275.604H559.879V255.653L549.244 275.604H540.807V243.905H549.244V263.827ZM580.533 243.905H588.971L588.707 254.511C588.629 257.909 588.238 260.829 587.535 263.271C586.832 265.712 585.895 267.763 584.723 269.423C583.551 271.083 582.213 272.411 580.709 273.407C579.225 274.384 577.662 275.116 576.021 275.604H574.439L574.352 269.101L575.23 269.013C576.227 267.978 577.047 266.972 577.691 265.995C578.336 264.999 578.834 263.954 579.186 262.86C579.537 261.767 579.791 260.546 579.947 259.198C580.123 257.851 580.23 256.288 580.27 254.511L580.533 243.905ZM582.818 243.905H603.824V275.604H595.416V250.673H582.818V243.905ZM572.506 269.013H608.365V285.126H599.928V275.604H581.148V285.126H572.506V269.013ZM629.781 268.456V254.335C629.781 253.319 629.615 252.45 629.283 251.728C628.951 250.985 628.434 250.409 627.73 249.999C627.047 249.589 626.158 249.384 625.064 249.384C624.127 249.384 623.316 249.55 622.633 249.882C621.949 250.194 621.422 250.653 621.051 251.259C620.68 251.845 620.494 252.538 620.494 253.339H612.057C612.057 251.991 612.369 250.712 612.994 249.501C613.619 248.29 614.527 247.226 615.719 246.308C616.91 245.37 618.326 244.638 619.967 244.11C621.627 243.583 623.482 243.319 625.533 243.319C627.994 243.319 630.182 243.729 632.096 244.55C634.01 245.37 635.514 246.601 636.607 248.241C637.721 249.882 638.277 251.933 638.277 254.394V267.958C638.277 269.696 638.385 271.122 638.6 272.235C638.814 273.329 639.127 274.286 639.537 275.106V275.604H631.012C630.602 274.745 630.289 273.671 630.074 272.382C629.879 271.073 629.781 269.765 629.781 268.456ZM630.895 256.298L630.953 261.073H626.236C625.123 261.073 624.156 261.2 623.336 261.454C622.516 261.708 621.842 262.069 621.314 262.538C620.787 262.987 620.396 263.515 620.143 264.12C619.908 264.726 619.791 265.39 619.791 266.112C619.791 266.835 619.957 267.489 620.289 268.075C620.621 268.642 621.1 269.091 621.725 269.423C622.35 269.735 623.082 269.892 623.922 269.892C625.191 269.892 626.295 269.638 627.232 269.13C628.17 268.622 628.893 267.997 629.4 267.255C629.928 266.513 630.201 265.81 630.221 265.146L632.447 268.72C632.135 269.521 631.705 270.351 631.158 271.21C630.631 272.069 629.957 272.88 629.137 273.642C628.316 274.384 627.33 274.999 626.178 275.487C625.025 275.956 623.658 276.19 622.076 276.19C620.064 276.19 618.238 275.79 616.598 274.989C614.977 274.169 613.688 273.046 612.73 271.62C611.793 270.175 611.324 268.534 611.324 266.698C611.324 265.038 611.637 263.563 612.262 262.274C612.887 260.985 613.805 259.901 615.016 259.022C616.246 258.124 617.779 257.45 619.615 257.001C621.451 256.532 623.58 256.298 626.002 256.298H630.895ZM644.752 275.604V243.905H653.189V269.013H663.795V243.905H672.262V275.604H644.752ZM677.008 269.042L676.451 285.009H668.6V275.604H665.055V269.042H677.008ZM689.693 263.827L700.328 243.905H708.766V275.604H700.328V255.653L689.693 275.604H681.256V243.905H689.693V263.827ZM722.096 259.784H730.65L721.832 275.604H713.307L722.096 259.784ZM727.779 243.905H741.695V275.604H733.258V250.438H727.779C726.627 250.438 725.67 250.653 724.908 251.083C724.146 251.493 723.58 252.03 723.209 252.694C722.857 253.339 722.682 254.003 722.682 254.687C722.682 255.351 722.857 255.995 723.209 256.62C723.561 257.245 724.107 257.763 724.85 258.173C725.592 258.583 726.52 258.788 727.633 258.788H736.393V264.53H727.633C725.543 264.53 723.668 264.276 722.008 263.769C720.367 263.261 718.961 262.558 717.789 261.659C716.637 260.741 715.748 259.677 715.123 258.466C714.518 257.235 714.215 255.888 714.215 254.423C714.215 252.899 714.527 251.503 715.152 250.233C715.777 248.964 716.676 247.851 717.848 246.894C719.02 245.937 720.436 245.204 722.096 244.696C723.775 244.169 725.67 243.905 727.779 243.905ZM758.365 232.948L757.398 262.567H750.367L749.371 232.948H758.365ZM749.137 271.737C749.137 270.487 749.566 269.452 750.426 268.632C751.305 267.792 752.457 267.372 753.883 267.372C755.328 267.372 756.48 267.792 757.34 268.632C758.199 269.452 758.629 270.487 758.629 271.737C758.629 272.948 758.199 273.974 757.34 274.813C756.48 275.653 755.328 276.073 753.883 276.073C752.457 276.073 751.305 275.653 750.426 274.813C749.566 273.974 749.137 272.948 749.137 271.737ZM392.652 331.454H401.412C401.236 334.325 400.445 336.874 399.039 339.101C397.652 341.327 395.709 343.065 393.209 344.315C390.729 345.565 387.74 346.19 384.244 346.19C381.51 346.19 379.059 345.722 376.891 344.784C374.723 343.827 372.867 342.46 371.324 340.683C369.801 338.905 368.639 336.757 367.838 334.237C367.037 331.718 366.637 328.896 366.637 325.771V322.812C366.637 319.687 367.047 316.864 367.867 314.345C368.707 311.806 369.898 309.647 371.441 307.87C373.004 306.093 374.869 304.726 377.037 303.769C379.205 302.812 381.627 302.333 384.303 302.333C387.857 302.333 390.855 302.978 393.297 304.267C395.758 305.556 397.662 307.333 399.01 309.599C400.377 311.864 401.197 314.442 401.471 317.333H392.682C392.584 315.614 392.242 314.159 391.656 312.968C391.07 311.757 390.182 310.849 388.99 310.243C387.818 309.618 386.256 309.306 384.303 309.306C382.838 309.306 381.559 309.579 380.465 310.126C379.371 310.673 378.453 311.503 377.711 312.616C376.969 313.729 376.412 315.136 376.041 316.835C375.689 318.515 375.514 320.487 375.514 322.753V325.771C375.514 327.978 375.68 329.921 376.012 331.601C376.344 333.261 376.852 334.667 377.535 335.819C378.238 336.952 379.137 337.812 380.23 338.397C381.344 338.964 382.682 339.247 384.244 339.247C386.08 339.247 387.594 338.954 388.785 338.368C389.977 337.782 390.885 336.913 391.51 335.761C392.154 334.608 392.535 333.173 392.652 331.454ZM415.65 313.905V345.604H407.213V313.905H415.65ZM436.246 313.905L422.594 333.739H414.156L413.131 325.946H418.727L425.553 313.905H436.246ZM425.934 345.604L418.141 332.216L425.494 328.144L437.242 345.604H425.934ZM448.814 333.827L459.449 313.905H467.887V345.604H459.449V325.653L448.814 345.604H440.377V313.905H448.814V333.827ZM480.104 313.905H488.541L488.277 324.511C488.199 327.909 487.809 330.829 487.105 333.271C486.402 335.712 485.465 337.763 484.293 339.423C483.121 341.083 481.783 342.411 480.279 343.407C478.795 344.384 477.232 345.116 475.592 345.604H474.01L473.922 339.101L474.801 339.013C475.797 337.978 476.617 336.972 477.262 335.995C477.906 334.999 478.404 333.954 478.756 332.86C479.107 331.767 479.361 330.546 479.518 329.198C479.693 327.851 479.801 326.288 479.84 324.511L480.104 313.905ZM482.389 313.905H503.395V345.604H494.986V320.673H482.389V313.905ZM472.076 339.013H507.936V355.126H499.498V345.604H480.719V355.126H472.076V339.013ZM520.885 313.905V345.604H512.447V313.905H520.885ZM541.48 313.905L527.828 333.739H519.391L518.365 325.946H523.961L530.787 313.905H541.48ZM531.168 345.604L523.375 332.216L530.729 328.144L542.477 345.604H531.168ZM554.049 333.827L564.684 313.905H573.121V345.604H564.684V325.653L554.049 345.604H545.611V313.905H554.049V333.827ZM600.279 313.905H608.717L608.453 324.511C608.375 327.909 607.984 330.829 607.281 333.271C606.578 335.712 605.641 337.763 604.469 339.423C603.297 341.083 601.959 342.411 600.455 343.407C598.971 344.384 597.408 345.116 595.768 345.604H594.186L594.098 339.101L594.977 339.013C595.973 337.978 596.793 336.972 597.437 335.995C598.082 334.999 598.58 333.954 598.932 332.86C599.283 331.767 599.537 330.546 599.693 329.198C599.869 327.851 599.977 326.288 600.016 324.511L600.279 313.905ZM602.564 313.905H623.57V345.604H615.162V320.673H602.564V313.905ZM592.252 339.013H628.111V355.126H619.674V345.604H600.895V355.126H592.252V339.013ZM631.07 330.077V329.462C631.07 327.138 631.402 324.999 632.066 323.046C632.73 321.073 633.697 319.364 634.967 317.919C636.236 316.474 637.799 315.351 639.654 314.55C641.51 313.729 643.639 313.319 646.041 313.319C648.443 313.319 650.582 313.729 652.457 314.55C654.332 315.351 655.904 316.474 657.174 317.919C658.463 319.364 659.439 321.073 660.104 323.046C660.768 324.999 661.1 327.138 661.1 329.462V330.077C661.1 332.382 660.768 334.521 660.104 336.493C659.439 338.446 658.463 340.155 657.174 341.62C655.904 343.065 654.342 344.188 652.486 344.989C650.631 345.79 648.502 346.19 646.1 346.19C643.697 346.19 641.559 345.79 639.684 344.989C637.828 344.188 636.256 343.065 634.967 341.62C633.697 340.155 632.73 338.446 632.066 336.493C631.402 334.521 631.07 332.382 631.07 330.077ZM639.508 329.462V330.077C639.508 331.405 639.625 332.646 639.859 333.798C640.094 334.95 640.465 335.966 640.973 336.845C641.5 337.704 642.184 338.378 643.023 338.866C643.863 339.354 644.889 339.599 646.1 339.599C647.271 339.599 648.277 339.354 649.117 338.866C649.957 338.378 650.631 337.704 651.139 336.845C651.646 335.966 652.018 334.95 652.252 333.798C652.506 332.646 652.633 331.405 652.633 330.077V329.462C652.633 328.173 652.506 326.962 652.252 325.829C652.018 324.677 651.637 323.661 651.109 322.782C650.602 321.884 649.928 321.181 649.088 320.673C648.248 320.165 647.232 319.911 646.041 319.911C644.85 319.911 643.834 320.165 642.994 320.673C642.174 321.181 641.5 321.884 640.973 322.782C640.465 323.661 640.094 324.677 639.859 325.829C639.625 326.962 639.508 328.173 639.508 329.462ZM709.85 302.948V307.489L693.355 345.604H684.449L700.943 309.54H679.703V302.948H709.85ZM744.039 320.526V327.909C744.039 331.112 743.697 333.876 743.014 336.2C742.33 338.505 741.344 340.399 740.055 341.884C738.785 343.349 737.271 344.433 735.514 345.136C733.756 345.839 731.803 346.19 729.654 346.19C727.936 346.19 726.334 345.976 724.85 345.546C723.365 345.097 722.027 344.403 720.836 343.466C719.664 342.528 718.648 341.347 717.789 339.921C716.949 338.476 716.305 336.757 715.855 334.765C715.406 332.772 715.182 330.487 715.182 327.909V320.526C715.182 317.323 715.523 314.579 716.207 312.294C716.91 309.989 717.896 308.104 719.166 306.64C720.455 305.175 721.979 304.101 723.736 303.417C725.494 302.714 727.447 302.362 729.596 302.362C731.314 302.362 732.906 302.587 734.371 303.036C735.855 303.466 737.193 304.14 738.385 305.058C739.576 305.976 740.592 307.157 741.432 308.603C742.271 310.028 742.916 311.737 743.365 313.729C743.814 315.702 744.039 317.968 744.039 320.526ZM735.572 329.022V319.384C735.572 317.841 735.484 316.493 735.309 315.341C735.152 314.188 734.908 313.212 734.576 312.411C734.244 311.591 733.834 310.927 733.346 310.419C732.857 309.911 732.301 309.54 731.676 309.306C731.051 309.071 730.357 308.954 729.596 308.954C728.639 308.954 727.789 309.14 727.047 309.511C726.324 309.882 725.709 310.478 725.201 311.298C724.693 312.099 724.303 313.173 724.029 314.521C723.775 315.849 723.648 317.47 723.648 319.384V329.022C723.648 330.565 723.727 331.923 723.883 333.095C724.059 334.267 724.312 335.272 724.645 336.112C724.996 336.933 725.406 337.606 725.875 338.134C726.363 338.642 726.92 339.013 727.545 339.247C728.189 339.481 728.893 339.599 729.654 339.599C730.592 339.599 731.422 339.413 732.145 339.042C732.887 338.651 733.512 338.046 734.02 337.226C734.547 336.386 734.938 335.292 735.191 333.944C735.445 332.597 735.572 330.956 735.572 329.022ZM749.664 313.407V311.151C749.664 309.53 750.016 308.056 750.719 306.728C751.422 305.399 752.457 304.335 753.824 303.534C755.191 302.733 756.871 302.333 758.863 302.333C760.914 302.333 762.623 302.733 763.99 303.534C765.377 304.335 766.412 305.399 767.096 306.728C767.799 308.056 768.15 309.53 768.15 311.151V313.407C768.15 314.989 767.799 316.444 767.096 317.772C766.412 319.101 765.387 320.165 764.02 320.966C762.652 321.767 760.963 322.167 758.951 322.167C756.92 322.167 755.211 321.767 753.824 320.966C752.457 320.165 751.422 319.101 750.719 317.772C750.016 316.444 749.664 314.989 749.664 313.407ZM755.26 311.151V313.407C755.26 314.091 755.387 314.745 755.641 315.37C755.914 315.976 756.324 316.474 756.871 316.864C757.438 317.235 758.121 317.421 758.922 317.421C759.762 317.421 760.445 317.235 760.973 316.864C761.5 316.474 761.891 315.976 762.145 315.37C762.398 314.745 762.525 314.091 762.525 313.407V311.151C762.525 310.429 762.389 309.765 762.115 309.159C761.861 308.534 761.461 308.036 760.914 307.665C760.387 307.274 759.703 307.079 758.863 307.079C758.082 307.079 757.418 307.274 756.871 307.665C756.324 308.036 755.914 308.534 755.641 309.159C755.387 309.765 755.26 310.429 755.26 311.151ZM770.055 337.401V335.146C770.055 333.544 770.406 332.079 771.109 330.751C771.832 329.423 772.877 328.358 774.244 327.558C775.631 326.757 777.33 326.356 779.342 326.356C781.373 326.356 783.072 326.757 784.439 327.558C785.807 328.358 786.842 329.423 787.545 330.751C788.248 332.079 788.6 333.544 788.6 335.146V337.401C788.6 339.003 788.248 340.468 787.545 341.796C786.861 343.124 785.836 344.188 784.469 344.989C783.102 345.79 781.412 346.19 779.4 346.19C777.369 346.19 775.66 345.79 774.273 344.989C772.887 344.188 771.832 343.124 771.109 341.796C770.406 340.468 770.055 339.003 770.055 337.401ZM775.68 335.146V337.401C775.68 338.104 775.836 338.769 776.148 339.394C776.461 340.019 776.891 340.517 777.438 340.888C778.004 341.259 778.658 341.444 779.4 341.444C780.338 341.444 781.07 341.259 781.598 340.888C782.125 340.517 782.486 340.019 782.682 339.394C782.896 338.769 783.004 338.104 783.004 337.401V335.146C783.004 334.442 782.867 333.788 782.594 333.183C782.32 332.558 781.91 332.06 781.363 331.688C780.836 331.298 780.162 331.103 779.342 331.103C778.521 331.103 777.838 331.298 777.291 331.688C776.764 332.06 776.363 332.558 776.09 333.183C775.816 333.788 775.68 334.442 775.68 335.146ZM781.422 309.042L760.592 342.382L756.49 340.214L777.32 306.874L781.422 309.042Z" fill="#E11C4B"/>
<path d="M360.734 417.996C361.443 417.996 362.098 417.851 362.7 417.561C363.301 417.271 363.795 416.874 364.182 416.369C364.569 415.853 364.789 415.268 364.843 414.612H367.679C367.625 415.644 367.276 416.605 366.631 417.497C365.997 418.377 365.165 419.092 364.134 419.64C363.102 420.177 361.969 420.445 360.734 420.445C359.423 420.445 358.279 420.214 357.302 419.752C356.335 419.291 355.529 418.657 354.885 417.851C354.251 417.045 353.773 416.122 353.451 415.08C353.139 414.027 352.983 412.915 352.983 411.744V411.067C352.983 409.896 353.139 408.79 353.451 407.748C353.773 406.695 354.251 405.766 354.885 404.96C355.529 404.155 356.335 403.521 357.302 403.059C358.279 402.597 359.423 402.366 360.734 402.366C362.098 402.366 363.29 402.646 364.311 403.204C365.331 403.752 366.132 404.504 366.712 405.46C367.303 406.405 367.625 407.479 367.679 408.683H364.843C364.789 407.963 364.585 407.313 364.23 406.733C363.887 406.153 363.414 405.691 362.812 405.347C362.222 404.993 361.529 404.815 360.734 404.815C359.821 404.815 359.053 404.998 358.43 405.363C357.817 405.718 357.329 406.201 356.963 406.813C356.609 407.415 356.351 408.086 356.19 408.828C356.039 409.558 355.964 410.305 355.964 411.067V411.744C355.964 412.507 356.039 413.259 356.19 414C356.34 414.741 356.593 415.413 356.947 416.014C357.312 416.616 357.801 417.099 358.414 417.464C359.037 417.819 359.81 417.996 360.734 417.996ZM402.451 417.674V420.123H387.095V417.98L394.781 409.424C395.727 408.371 396.457 407.479 396.973 406.749C397.499 406.008 397.864 405.347 398.068 404.767C398.283 404.176 398.391 403.575 398.391 402.962C398.391 402.189 398.229 401.491 397.907 400.868C397.596 400.234 397.134 399.729 396.521 399.353C395.909 398.977 395.168 398.789 394.298 398.789C393.256 398.789 392.386 398.993 391.687 399.401C391 399.799 390.484 400.357 390.141 401.077C389.797 401.797 389.625 402.624 389.625 403.559H386.644C386.644 402.237 386.934 401.029 387.514 399.933C388.094 398.837 388.954 397.967 390.092 397.323C391.231 396.667 392.633 396.34 394.298 396.34C395.78 396.34 397.048 396.603 398.101 397.129C399.153 397.645 399.959 398.375 400.518 399.321C401.087 400.255 401.372 401.351 401.372 402.608C401.372 403.295 401.253 403.994 401.017 404.703C400.791 405.401 400.475 406.099 400.066 406.797C399.669 407.496 399.202 408.183 398.664 408.86C398.138 409.537 397.574 410.203 396.973 410.858L390.688 417.674H402.451ZM420.434 413.774C420.434 415.203 420.101 416.417 419.435 417.416C418.779 418.404 417.888 419.156 416.76 419.672C415.643 420.188 414.38 420.445 412.973 420.445C411.566 420.445 410.298 420.188 409.17 419.672C408.042 419.156 407.151 418.404 406.496 417.416C405.84 416.417 405.513 415.203 405.513 413.774C405.513 412.84 405.69 411.986 406.044 411.212C406.41 410.428 406.92 409.746 407.575 409.166C408.241 408.586 409.025 408.14 409.928 407.829C410.841 407.506 411.845 407.345 412.941 407.345C414.38 407.345 415.664 407.625 416.792 408.183C417.92 408.731 418.806 409.488 419.451 410.455C420.106 411.422 420.434 412.528 420.434 413.774ZM417.436 413.71C417.436 412.84 417.248 412.072 416.872 411.406C416.497 410.729 415.97 410.203 415.293 409.827C414.617 409.451 413.832 409.263 412.941 409.263C412.028 409.263 411.238 409.451 410.572 409.827C409.917 410.203 409.407 410.729 409.041 411.406C408.676 412.072 408.494 412.84 408.494 413.71C408.494 414.612 408.671 415.386 409.025 416.03C409.391 416.664 409.906 417.153 410.572 417.497C411.249 417.83 412.049 417.996 412.973 417.996C413.897 417.996 414.692 417.83 415.358 417.497C416.024 417.153 416.534 416.664 416.889 416.03C417.254 415.386 417.436 414.612 417.436 413.71ZM419.886 402.769C419.886 403.908 419.585 404.934 418.983 405.847C418.382 406.76 417.56 407.479 416.518 408.006C415.476 408.532 414.294 408.795 412.973 408.795C411.63 408.795 410.433 408.532 409.38 408.006C408.338 407.479 407.521 406.76 406.931 405.847C406.34 404.934 406.044 403.908 406.044 402.769C406.044 401.405 406.34 400.245 406.931 399.289C407.532 398.333 408.354 397.602 409.396 397.097C410.438 396.592 411.625 396.34 412.957 396.34C414.3 396.34 415.492 396.592 416.534 397.097C417.576 397.602 418.393 398.333 418.983 399.289C419.585 400.245 419.886 401.405 419.886 402.769ZM416.905 402.817C416.905 402.033 416.738 401.34 416.405 400.739C416.072 400.137 415.61 399.665 415.019 399.321C414.429 398.966 413.741 398.789 412.957 398.789C412.173 398.789 411.485 398.956 410.894 399.289C410.314 399.611 409.858 400.073 409.525 400.674C409.203 401.276 409.041 401.99 409.041 402.817C409.041 403.623 409.203 404.327 409.525 404.928C409.858 405.53 410.32 405.997 410.911 406.33C411.501 406.663 412.189 406.83 412.973 406.83C413.757 406.83 414.439 406.663 415.019 406.33C415.61 405.997 416.072 405.53 416.405 404.928C416.738 404.327 416.905 403.623 416.905 402.817ZM439.689 417.996C440.398 417.996 441.053 417.851 441.655 417.561C442.256 417.271 442.75 416.874 443.137 416.369C443.524 415.853 443.744 415.268 443.798 414.612H446.634C446.58 415.644 446.231 416.605 445.586 417.497C444.953 418.377 444.12 419.092 443.089 419.64C442.058 420.177 440.924 420.445 439.689 420.445C438.378 420.445 437.234 420.214 436.257 419.752C435.29 419.291 434.484 418.657 433.84 417.851C433.206 417.045 432.728 416.122 432.406 415.08C432.094 414.027 431.938 412.915 431.938 411.744V411.067C431.938 409.896 432.094 408.79 432.406 407.748C432.728 406.695 433.206 405.766 433.84 404.96C434.484 404.155 435.29 403.521 436.257 403.059C437.234 402.597 438.378 402.366 439.689 402.366C441.053 402.366 442.246 402.646 443.266 403.204C444.287 403.752 445.087 404.504 445.667 405.46C446.258 406.405 446.58 407.479 446.634 408.683H443.798C443.744 407.963 443.54 407.313 443.185 406.733C442.842 406.153 442.369 405.691 441.768 405.347C441.177 404.993 440.484 404.815 439.689 404.815C438.776 404.815 438.008 404.998 437.385 405.363C436.772 405.718 436.284 406.201 435.918 406.813C435.564 407.415 435.306 408.086 435.145 408.828C434.995 409.558 434.919 410.305 434.919 411.067V411.744C434.919 412.507 434.995 413.259 435.145 414C435.295 414.741 435.548 415.413 435.902 416.014C436.268 416.616 436.756 417.099 437.369 417.464C437.992 417.819 438.765 417.996 439.689 417.996ZM457.22 420.445C456.006 420.445 454.905 420.241 453.917 419.833C452.939 419.414 452.096 418.829 451.387 418.077C450.689 417.325 450.152 416.433 449.776 415.402C449.4 414.371 449.212 413.243 449.212 412.018V411.341C449.212 409.923 449.421 408.661 449.84 407.555C450.259 406.438 450.829 405.492 451.548 404.719C452.268 403.945 453.084 403.36 453.997 402.962C454.911 402.565 455.856 402.366 456.833 402.366C458.08 402.366 459.154 402.581 460.056 403.011C460.969 403.44 461.716 404.042 462.296 404.815C462.876 405.578 463.306 406.48 463.585 407.522C463.864 408.554 464.004 409.682 464.004 410.906V412.244H450.984V409.811H461.023V409.585C460.98 408.812 460.819 408.06 460.539 407.329C460.271 406.599 459.841 405.997 459.25 405.524C458.66 405.052 457.854 404.815 456.833 404.815C456.157 404.815 455.534 404.96 454.964 405.25C454.395 405.53 453.906 405.949 453.498 406.507C453.09 407.066 452.773 407.748 452.547 408.554C452.322 409.359 452.209 410.289 452.209 411.341V412.018C452.209 412.845 452.322 413.624 452.547 414.354C452.784 415.074 453.122 415.708 453.562 416.256C454.014 416.804 454.556 417.233 455.19 417.545C455.834 417.856 456.565 418.012 457.381 418.012C458.434 418.012 459.326 417.797 460.056 417.368C460.787 416.938 461.426 416.363 461.974 415.644L463.778 417.078C463.402 417.647 462.924 418.189 462.344 418.705C461.764 419.221 461.05 419.64 460.201 419.962C459.363 420.284 458.37 420.445 457.22 420.445ZM479.311 410.246V412.663H470.095V410.246H479.311ZM470.723 402.688V420.123H467.742V402.688H470.723ZM481.728 402.688V420.123H478.731V402.688H481.728ZM493.636 402.688V420.123H490.639V402.688H493.636ZM499.485 402.688V405.105H484.903V402.688H499.485ZM505.947 411.809H509.169L504.126 420.123H500.903L505.947 411.809ZM508.444 402.688H515.727V420.123H512.747V405.105H508.444C507.596 405.105 506.903 405.25 506.366 405.541C505.829 405.82 505.436 406.185 505.189 406.636C504.942 407.087 504.819 407.555 504.819 408.038C504.819 408.511 504.932 408.967 505.157 409.408C505.383 409.837 505.737 410.192 506.221 410.471C506.704 410.75 507.327 410.89 508.09 410.89H513.552V413.339H508.09C507.091 413.339 506.205 413.205 505.431 412.937C504.658 412.668 504.002 412.297 503.465 411.825C502.928 411.341 502.52 410.777 502.241 410.133C501.961 409.478 501.822 408.769 501.822 408.006C501.822 407.243 501.967 406.54 502.257 405.895C502.558 405.25 502.987 404.687 503.546 404.203C504.115 403.72 504.808 403.349 505.624 403.091C506.452 402.823 507.392 402.688 508.444 402.688ZM531.712 395.099H534.161C534.161 396.152 534 396.99 533.678 397.613C533.355 398.225 532.915 398.698 532.356 399.031C531.809 399.364 531.185 399.616 530.487 399.788C529.8 399.96 529.085 400.126 528.344 400.288C527.42 400.481 526.561 400.787 525.766 401.206C524.982 401.614 524.305 402.194 523.736 402.946C523.177 403.698 522.764 404.676 522.495 405.879C522.237 407.082 522.167 408.57 522.286 410.342V411.825H519.836V410.342C519.836 408.355 520.024 406.62 520.4 405.138C520.787 403.655 521.33 402.404 522.028 401.383C522.726 400.363 523.553 399.552 524.509 398.95C525.476 398.349 526.539 397.935 527.7 397.709C528.538 397.548 529.257 397.376 529.859 397.194C530.46 397 530.917 396.743 531.228 396.42C531.551 396.098 531.712 395.658 531.712 395.099ZM528.183 403.688C529.322 403.688 530.337 403.886 531.228 404.284C532.12 404.681 532.877 405.234 533.5 405.943C534.123 406.652 534.596 407.49 534.918 408.457C535.251 409.413 535.418 410.455 535.418 411.583V411.938C535.418 413.151 535.241 414.279 534.886 415.321C534.542 416.353 534.032 417.255 533.355 418.028C532.689 418.791 531.873 419.387 530.906 419.817C529.95 420.247 528.86 420.461 527.635 420.461C526.411 420.461 525.315 420.247 524.348 419.817C523.392 419.387 522.576 418.791 521.899 418.028C521.222 417.255 520.706 416.353 520.352 415.321C520.008 414.279 519.836 413.151 519.836 411.938V411.583C519.836 411.314 519.885 411.051 519.981 410.793C520.078 410.536 520.196 410.272 520.336 410.004C520.486 409.735 520.621 409.451 520.739 409.15C521.136 408.183 521.679 407.286 522.366 406.459C523.064 405.632 523.897 404.966 524.864 404.461C525.841 403.945 526.948 403.688 528.183 403.688ZM527.603 406.121C526.507 406.121 525.605 406.373 524.896 406.878C524.198 407.383 523.677 408.054 523.333 408.892C522.989 409.719 522.817 410.616 522.817 411.583V411.938C522.817 412.754 522.914 413.527 523.107 414.258C523.301 414.988 523.591 415.638 523.977 416.208C524.375 416.766 524.874 417.207 525.476 417.529C526.088 417.851 526.808 418.012 527.635 418.012C528.462 418.012 529.177 417.851 529.778 417.529C530.38 417.207 530.874 416.766 531.261 416.208C531.647 415.638 531.937 414.988 532.131 414.258C532.324 413.527 532.421 412.754 532.421 411.938V411.583C532.421 410.853 532.324 410.16 532.131 409.504C531.937 408.849 531.642 408.269 531.245 407.764C530.858 407.259 530.358 406.862 529.746 406.572C529.144 406.271 528.43 406.121 527.603 406.121ZM541.493 406.04V426.826H538.496V402.688H541.235L541.493 406.04ZM553.239 411.261V411.599C553.239 412.867 553.089 414.043 552.788 415.128C552.487 416.202 552.047 417.137 551.467 417.932C550.897 418.727 550.194 419.344 549.356 419.785C548.518 420.225 547.557 420.445 546.472 420.445C545.365 420.445 544.388 420.263 543.539 419.897C542.69 419.532 541.971 419 541.38 418.302C540.789 417.604 540.316 416.766 539.962 415.789C539.618 414.811 539.382 413.71 539.253 412.485V410.681C539.382 409.392 539.623 408.237 539.978 407.216C540.332 406.196 540.8 405.326 541.38 404.606C541.971 403.875 542.685 403.322 543.523 402.946C544.361 402.56 545.328 402.366 546.423 402.366C547.519 402.366 548.491 402.581 549.34 403.011C550.188 403.43 550.903 404.031 551.483 404.815C552.063 405.6 552.498 406.54 552.788 407.635C553.089 408.72 553.239 409.929 553.239 411.261ZM550.242 411.599V411.261C550.242 410.391 550.151 409.574 549.968 408.812C549.786 408.038 549.501 407.361 549.114 406.781C548.738 406.19 548.255 405.729 547.664 405.396C547.073 405.052 546.37 404.88 545.553 404.88C544.801 404.88 544.146 405.009 543.587 405.267C543.039 405.524 542.572 405.874 542.185 406.314C541.799 406.744 541.482 407.238 541.235 407.796C540.998 408.344 540.821 408.914 540.703 409.504V413.678C540.918 414.43 541.219 415.139 541.605 415.805C541.992 416.46 542.508 416.992 543.152 417.4C543.797 417.797 544.608 417.996 545.585 417.996C546.391 417.996 547.084 417.83 547.664 417.497C548.255 417.153 548.738 416.686 549.114 416.095C549.501 415.504 549.786 414.827 549.968 414.064C550.151 413.291 550.242 412.469 550.242 411.599ZM560.571 411.809H563.793L558.75 420.123H555.527L560.571 411.809ZM563.068 402.688H570.352V420.123H567.371V405.105H563.068C562.22 405.105 561.527 405.25 560.99 405.541C560.453 405.82 560.06 406.185 559.813 406.636C559.566 407.087 559.443 407.555 559.443 408.038C559.443 408.511 559.556 408.967 559.781 409.408C560.007 409.837 560.361 410.192 560.845 410.471C561.328 410.75 561.951 410.89 562.714 410.89H568.176V413.339H562.714C561.715 413.339 560.829 413.205 560.055 412.937C559.282 412.668 558.626 412.297 558.089 411.825C557.552 411.341 557.144 410.777 556.865 410.133C556.585 409.478 556.446 408.769 556.446 408.006C556.446 407.243 556.591 406.54 556.881 405.895C557.182 405.25 557.611 404.687 558.17 404.203C558.739 403.72 559.432 403.349 560.248 403.091C561.076 402.823 562.016 402.688 563.068 402.688ZM586.481 402.688H589.462L589.204 409.214C589.14 410.869 588.952 412.297 588.64 413.5C588.329 414.704 587.931 415.729 587.448 416.578C586.964 417.416 586.422 418.12 585.82 418.689C585.229 419.258 584.617 419.736 583.983 420.123H582.501L582.581 417.69L583.194 417.674C583.548 417.255 583.892 416.825 584.225 416.385C584.558 415.934 584.864 415.402 585.143 414.79C585.423 414.167 585.654 413.409 585.836 412.518C586.03 411.615 586.153 410.514 586.207 409.214L586.481 402.688ZM587.222 402.688H597.712V420.123H594.731V405.444H587.222V402.688ZM581.824 417.674H599.952V425.263H596.971V420.123H584.805V425.263H581.808L581.824 417.674ZM602.465 411.599V411.229C602.465 409.972 602.648 408.806 603.013 407.732C603.378 406.647 603.905 405.707 604.592 404.912C605.28 404.106 606.112 403.483 607.09 403.043C608.067 402.592 609.163 402.366 610.377 402.366C611.602 402.366 612.703 402.592 613.68 403.043C614.668 403.483 615.506 404.106 616.194 404.912C616.892 405.707 617.424 406.647 617.789 407.732C618.154 408.806 618.337 409.972 618.337 411.229V411.599C618.337 412.856 618.154 414.021 617.789 415.096C617.424 416.17 616.892 417.11 616.194 417.916C615.506 418.71 614.674 419.333 613.696 419.785C612.729 420.225 611.634 420.445 610.409 420.445C609.185 420.445 608.083 420.225 607.106 419.785C606.128 419.333 605.29 418.71 604.592 417.916C603.905 417.11 603.378 416.17 603.013 415.096C602.648 414.021 602.465 412.856 602.465 411.599ZM605.446 411.229V411.599C605.446 412.469 605.548 413.291 605.752 414.064C605.956 414.827 606.263 415.504 606.671 416.095C607.09 416.686 607.611 417.153 608.234 417.497C608.857 417.83 609.582 417.996 610.409 417.996C611.226 417.996 611.94 417.83 612.552 417.497C613.175 417.153 613.691 416.686 614.099 416.095C614.507 415.504 614.813 414.827 615.018 414.064C615.232 413.291 615.34 412.469 615.34 411.599V411.229C615.34 410.369 615.232 409.558 615.018 408.795C614.813 408.022 614.502 407.34 614.083 406.749C613.675 406.147 613.159 405.675 612.536 405.331C611.924 404.987 611.204 404.815 610.377 404.815C609.56 404.815 608.841 404.987 608.218 405.331C607.605 405.675 607.09 406.147 606.671 406.749C606.263 407.34 605.956 408.022 605.752 408.795C605.548 409.558 605.446 410.369 605.446 411.229ZM645.101 396.662V398.338L635.385 420.123H632.243L641.943 399.111H629.246V396.662H645.101ZM656.219 411.599V411.229C656.219 409.972 656.402 408.806 656.767 407.732C657.132 406.647 657.659 405.707 658.346 404.912C659.034 404.106 659.866 403.483 660.844 403.043C661.821 402.592 662.917 402.366 664.131 402.366C665.355 402.366 666.456 402.592 667.434 403.043C668.422 403.483 669.26 404.106 669.948 404.912C670.646 405.707 671.178 406.647 671.543 407.732C671.908 408.806 672.091 409.972 672.091 411.229V411.599C672.091 412.856 671.908 414.021 671.543 415.096C671.178 416.17 670.646 417.11 669.948 417.916C669.26 418.71 668.428 419.333 667.45 419.785C666.483 420.225 665.388 420.445 664.163 420.445C662.938 420.445 661.837 420.225 660.86 419.785C659.882 419.333 659.044 418.71 658.346 417.916C657.659 417.11 657.132 416.17 656.767 415.096C656.402 414.021 656.219 412.856 656.219 411.599ZM659.2 411.229V411.599C659.2 412.469 659.302 413.291 659.506 414.064C659.71 414.827 660.017 415.504 660.425 416.095C660.844 416.686 661.365 417.153 661.988 417.497C662.611 417.83 663.336 417.996 664.163 417.996C664.979 417.996 665.694 417.83 666.306 417.497C666.929 417.153 667.445 416.686 667.853 416.095C668.261 415.504 668.567 414.827 668.771 414.064C668.986 413.291 669.094 412.469 669.094 411.599V411.229C669.094 410.369 668.986 409.558 668.771 408.795C668.567 408.022 668.256 407.34 667.837 406.749C667.429 406.147 666.913 405.675 666.29 405.331C665.678 404.987 664.958 404.815 664.131 404.815C663.314 404.815 662.595 404.987 661.972 405.331C661.359 405.675 660.844 406.147 660.425 406.749C660.017 407.34 659.71 408.022 659.506 408.795C659.302 409.558 659.2 410.369 659.2 411.229ZM679.068 402.688V420.123H676.087V402.688H679.068ZM690.508 402.688L682.242 412.679H678.069L677.618 410.068H681.034L686.883 402.688H690.508ZM687.302 420.123L680.889 412.228L682.806 410.068L691.088 420.123H687.302ZM700.789 402.688V420.123H697.791V402.688H700.789ZM706.638 402.688V405.105H692.055V402.688H706.638ZM713.099 411.809H716.322L711.278 420.123H708.056L713.099 411.809ZM715.597 402.688H722.88V420.123H719.899V405.105H715.597C714.748 405.105 714.055 405.25 713.518 405.541C712.981 405.82 712.589 406.185 712.342 406.636C712.095 407.087 711.971 407.555 711.971 408.038C711.971 408.511 712.084 408.967 712.31 409.408C712.535 409.837 712.89 410.192 713.373 410.471C713.856 410.75 714.479 410.89 715.242 410.89H720.705V413.339H715.242C714.243 413.339 713.357 413.205 712.583 412.937C711.81 412.668 711.155 412.297 710.618 411.825C710.081 411.341 709.672 410.777 709.393 410.133C709.114 409.478 708.974 408.769 708.974 408.006C708.974 407.243 709.119 406.54 709.409 405.895C709.71 405.25 710.14 404.687 710.698 404.203C711.268 403.72 711.96 403.349 712.777 403.091C713.604 402.823 714.544 402.688 715.597 402.688ZM738.864 395.099H741.313C741.313 396.152 741.152 396.99 740.83 397.613C740.508 398.225 740.067 398.698 739.509 399.031C738.961 399.364 738.338 399.616 737.64 399.788C736.952 399.96 736.238 400.126 735.497 400.288C734.573 400.481 733.713 400.787 732.918 401.206C732.134 401.614 731.457 402.194 730.888 402.946C730.33 403.698 729.916 404.676 729.647 405.879C729.39 407.082 729.32 408.57 729.438 410.342V411.825H726.989V410.342C726.989 408.355 727.177 406.62 727.553 405.138C727.939 403.655 728.482 402.404 729.18 401.383C729.878 400.363 730.706 399.552 731.662 398.95C732.628 398.349 733.692 397.935 734.852 397.709C735.69 397.548 736.41 397.376 737.011 397.194C737.613 397 738.069 396.743 738.381 396.42C738.703 396.098 738.864 395.658 738.864 395.099ZM735.335 403.688C736.474 403.688 737.489 403.886 738.381 404.284C739.272 404.681 740.03 405.234 740.653 405.943C741.276 406.652 741.748 407.49 742.071 408.457C742.404 409.413 742.57 410.455 742.57 411.583V411.938C742.57 413.151 742.393 414.279 742.039 415.321C741.695 416.353 741.185 417.255 740.508 418.028C739.842 418.791 739.025 419.387 738.059 419.817C737.102 420.247 736.012 420.461 734.788 420.461C733.563 420.461 732.467 420.247 731.5 419.817C730.544 419.387 729.728 418.791 729.051 418.028C728.374 417.255 727.859 416.353 727.504 415.321C727.161 414.279 726.989 413.151 726.989 411.938V411.583C726.989 411.314 727.037 411.051 727.134 410.793C727.23 410.536 727.349 410.272 727.488 410.004C727.639 409.735 727.773 409.451 727.891 409.15C728.289 408.183 728.831 407.286 729.518 406.459C730.217 405.632 731.049 404.966 732.016 404.461C732.994 403.945 734.1 403.688 735.335 403.688ZM734.755 406.121C733.66 406.121 732.757 406.373 732.048 406.878C731.35 407.383 730.829 408.054 730.485 408.892C730.142 409.719 729.97 410.616 729.97 411.583V411.938C729.97 412.754 730.066 413.527 730.26 414.258C730.453 414.988 730.743 415.638 731.13 416.208C731.527 416.766 732.027 417.207 732.628 417.529C733.241 417.851 733.96 418.012 734.788 418.012C735.615 418.012 736.329 417.851 736.931 417.529C737.532 417.207 738.026 416.766 738.413 416.208C738.8 415.638 739.09 414.988 739.283 414.258C739.477 413.527 739.573 412.754 739.573 411.938V411.583C739.573 410.853 739.477 410.16 739.283 409.504C739.09 408.849 738.794 408.269 738.397 407.764C738.01 407.259 737.511 406.862 736.898 406.572C736.297 406.271 735.582 406.121 734.755 406.121ZM748.645 406.04V426.826H745.648V402.688H748.387L748.645 406.04ZM760.392 411.261V411.599C760.392 412.867 760.241 414.043 759.94 415.128C759.64 416.202 759.199 417.137 758.619 417.932C758.05 418.727 757.346 419.344 756.508 419.785C755.67 420.225 754.709 420.445 753.624 420.445C752.518 420.445 751.54 420.263 750.691 419.897C749.843 419.532 749.123 419 748.532 418.302C747.941 417.604 747.469 416.766 747.114 415.789C746.77 414.811 746.534 413.71 746.405 412.485V410.681C746.534 409.392 746.776 408.237 747.13 407.216C747.485 406.196 747.952 405.326 748.532 404.606C749.123 403.875 749.837 403.322 750.675 402.946C751.513 402.56 752.48 402.366 753.576 402.366C754.671 402.366 755.643 402.581 756.492 403.011C757.341 403.43 758.055 404.031 758.635 404.815C759.215 405.6 759.65 406.54 759.94 407.635C760.241 408.72 760.392 409.929 760.392 411.261ZM757.394 411.599V411.261C757.394 410.391 757.303 409.574 757.121 408.812C756.938 408.038 756.653 407.361 756.267 406.781C755.891 406.19 755.407 405.729 754.816 405.396C754.226 405.052 753.522 404.88 752.706 404.88C751.954 404.88 751.298 405.009 750.74 405.267C750.192 405.524 749.725 405.874 749.338 406.314C748.951 406.744 748.634 407.238 748.387 407.796C748.151 408.344 747.974 408.914 747.855 409.504V413.678C748.07 414.43 748.371 415.139 748.758 415.805C749.144 416.46 749.66 416.992 750.305 417.4C750.949 417.797 751.76 417.996 752.738 417.996C753.543 417.996 754.236 417.83 754.816 417.497C755.407 417.153 755.891 416.686 756.267 416.095C756.653 415.504 756.938 414.827 757.121 414.064C757.303 413.291 757.394 412.469 757.394 411.599ZM767.723 411.809H770.946L765.902 420.123H762.68L767.723 411.809ZM770.221 402.688H777.504V420.123H774.523V405.105H770.221C769.372 405.105 768.679 405.25 768.142 405.541C767.605 405.82 767.213 406.185 766.966 406.636C766.719 407.087 766.595 407.555 766.595 408.038C766.595 408.511 766.708 408.967 766.934 409.408C767.159 409.837 767.514 410.192 767.997 410.471C768.48 410.75 769.103 410.89 769.866 410.89H775.329V413.339H769.866C768.867 413.339 767.981 413.205 767.207 412.937C766.434 412.668 765.779 412.297 765.242 411.825C764.705 411.341 764.296 410.777 764.017 410.133C763.738 409.478 763.598 408.769 763.598 408.006C763.598 407.243 763.743 406.54 764.033 405.895C764.334 405.25 764.764 404.687 765.322 404.203C765.892 403.72 766.584 403.349 767.401 403.091C768.228 402.823 769.168 402.688 770.221 402.688Z" fill="#333333"/>
<path d="M500.383 3L5.67484 505.273L4.0943 69.1299C0.566349 27.2474 3.33062 7.54087 46.7688 3H500.383Z" fill="#E11C4B"/>
<path d="M655.617 649.676L1150.33 147.403L1151.91 583.546C1155.43 625.428 1152.67 645.135 1109.23 649.676L655.617 649.676Z" fill="#E11C4B"/>
<path d="M798.179 156.82L932.821 6.13867H1092.81L798.179 156.82Z" fill="#E11C4B"/>
<path d="M370.493 498.994L235.851 649.676H75.8651L370.493 498.994Z" fill="#E11C4B"/>
</svg>
